<?xml version="1.0" standalone="no"?>
<!DOCTYPE svg PUBLIC "-//W3C//DTD SVG 20010904//EN"
 "http://www.w3.org/TR/2001/REC-SVG-20010904/DTD/svg10.dtd">
<svg version="1.0" xmlns="http://www.w3.org/2000/svg"
 width="16.000000pt" height="16.000000pt" viewBox="0 0 16.000000 16.000000"
 preserveAspectRatio="xMidYMid meet">
<metadata>
Created by potrace 1.16, written by Peter Selinger 2001-2019
</metadata>
<g transform="translate(0.000000,16.000000) scale(0.100000,-0.100000)"
fill="#000000" stroke="none">
<path d="M0 80 c0 -91 17 -109 22 -23 2 42 7 57 16 55 9 -2 7 6 -5 22 -10 14
-21 26 -25 26 -5 0 -8 -36 -8 -80z"/>
<path d="M57 135 c10 -13 20 -24 23 -24 3 0 13 11 23 24 l18 25 -41 0 -41 0
18 -25z"/>
<path d="M143 154 c3 -4 -4 -15 -16 -25 -16 -14 -17 -17 -4 -13 15 5 17 -1 17
-55 0 -34 4 -61 10 -61 6 0 10 33 10 80 0 54 -4 80 -12 80 -6 0 -9 -3 -5 -6z"/>
<path d="M70 76 c7 -7 13 -7 20 0 6 6 3 10 -10 10 -13 0 -16 -4 -10 -10z"/>
<path d="M40 43 l0 -43 40 0 40 0 0 43 c-1 33 -3 38 -11 25 -5 -10 -19 -18
-29 -18 -10 0 -24 8 -29 18 -8 13 -10 8 -11 -25z"/>
</g>
</svg>
