<svg xmlns="http://www.w3.org/2000/svg" xmlns:xlink="http://www.w3.org/1999/xlink" width="1280" zoomAndPan="magnify" viewBox="0 0 960 479.999983" height="640" preserveAspectRatio="xMidYMid meet" version="1.0"><defs><clipPath id="9d14705ee3"><path d="M 0 115.351562 L 279.75 115.351562 L 279.75 364.351562 L 0 364.351562 Z M 0 115.351562 " clip-rule="nonzero"/></clipPath><clipPath id="09fe2923f7"><path d="M 309.964844 129.15625 L 680.464844 129.15625 L 680.464844 351 L 309.964844 351 Z M 309.964844 129.15625 " clip-rule="nonzero"/></clipPath><clipPath id="2a5f0efb57"><path d="M 772 115.351562 L 959.703125 115.351562 L 959.703125 364.351562 L 772 364.351562 Z M 772 115.351562 " clip-rule="nonzero"/></clipPath><clipPath id="6495cda2d3"><path d="M 897 239 L 959.703125 239 L 959.703125 364.351562 L 897 364.351562 Z M 897 239 " clip-rule="nonzero"/></clipPath><clipPath id="bca74bea2c"><path d="M 710.703125 115.351562 L 836 115.351562 L 836 364.351562 L 710.703125 364.351562 Z M 710.703125 115.351562 " clip-rule="nonzero"/></clipPath></defs><g clip-path="url(#9d14705ee3)"><path fill="#00d8ff" d="M 279.75 239.886719 C 279.75 221.371094 256.550781 203.835938 220.96875 192.941406 C 229.1875 156.707031 225.519531 127.890625 209.449219 118.65625 C 205.738281 116.496094 201.410156 115.472656 196.675781 115.472656 L 196.675781 128.183594 C 199.292969 128.183594 201.410156 128.707031 203.1875 129.664062 C 210.949219 134.097656 214.296875 151.023438 211.679688 172.789062 C 211.042969 178.132812 210.015625 183.773438 208.765625 189.527344 C 197.585938 186.800781 185.382812 184.683594 172.566406 183.320312 C 164.871094 172.789062 156.882812 163.214844 148.84375 154.84375 C 167.421875 137.554688 184.859375 128.117188 196.722656 128.117188 L 196.722656 115.402344 C 181.035156 115.402344 160.523438 126.570312 139.761719 145.949219 C 119 126.683594 98.484375 115.628906 82.800781 115.628906 L 82.800781 128.34375 C 94.59375 128.34375 112.101562 137.738281 130.699219 154.886719 C 122.710938 163.257812 114.742188 172.765625 107.160156 183.320312 C 94.273438 184.683594 82.070312 186.800781 70.894531 189.574219 C 69.574219 183.886719 68.617188 178.359375 67.933594 173.0625 C 65.246094 151.292969 68.570312 134.371094 76.265625 129.867188 C 77.972656 128.84375 80.203125 128.390625 82.824219 128.390625 L 82.824219 115.699219 C 78.042969 115.699219 73.695312 116.722656 69.9375 118.882812 C 53.910156 128.117188 50.3125 156.890625 58.601562 193.007812 C 23.085938 203.925781 0 221.417969 0 239.886719 C 0 258.402344 23.199219 275.9375 58.78125 286.832031 C 50.5625 323.066406 54.230469 351.882812 70.300781 361.117188 C 74.011719 363.277344 78.339844 364.300781 83.140625 364.300781 C 98.828125 364.300781 119.339844 353.132812 140.101562 333.753906 C 160.867188 353.019531 181.378906 364.074219 197.0625 364.074219 C 201.84375 364.074219 206.191406 363.050781 209.949219 360.890625 C 225.976562 351.65625 229.574219 322.882812 221.285156 286.765625 C 256.664062 275.890625 279.75 258.332031 279.75 239.886719 Z M 165.875 239.886719 C 165.875 225.511719 154.21875 213.84375 139.808594 213.84375 C 125.417969 213.84375 113.738281 225.488281 113.738281 239.886719 C 113.738281 254.285156 125.394531 265.929688 139.808594 265.929688 C 154.21875 265.90625 165.875 254.261719 165.875 239.886719 Z M 82.730469 115.628906 Z M 205.507812 201.878906 C 203.390625 209.226562 200.773438 216.800781 197.816406 224.375 C 195.46875 219.824219 193.035156 215.253906 190.347656 210.703125 C 187.730469 206.15625 184.929688 201.699219 182.128906 197.375 C 190.234375 198.582031 198.042969 200.058594 205.507812 201.878906 Z M 179.398438 262.5625 C 174.957031 270.25 170.382812 277.550781 165.644531 284.332031 C 157.15625 285.082031 148.550781 285.46875 139.875 285.46875 C 131.269531 285.46875 122.664062 285.058594 114.21875 284.375 C 109.480469 277.597656 104.859375 270.363281 100.421875 262.722656 C 96.097656 255.261719 92.15625 247.6875 88.558594 240.046875 C 92.089844 232.402344 96.097656 224.785156 100.351562 217.324219 C 104.792969 209.636719 109.367188 202.335938 114.105469 195.554688 C 122.59375 194.804688 131.199219 194.417969 139.875 194.417969 C 148.480469 194.417969 157.085938 194.828125 165.53125 195.511719 C 170.269531 202.289062 174.890625 209.523438 179.328125 217.164062 C 183.652344 224.625 187.59375 232.199219 191.191406 239.839844 C 187.59375 247.460938 183.675781 255.082031 179.398438 262.5625 Z M 197.816406 255.148438 C 200.886719 262.789062 203.507812 270.410156 205.691406 277.824219 C 198.222656 279.644531 190.347656 281.191406 182.195312 282.375 C 184.996094 277.984375 187.773438 273.480469 190.414062 268.863281 C 193.011719 264.316406 195.46875 259.699219 197.816406 255.148438 Z M 139.988281 315.921875 C 134.683594 310.464844 129.378906 304.367188 124.144531 297.703125 C 129.265625 297.933594 134.523438 298.113281 139.828125 298.113281 C 145.179688 298.113281 150.484375 298 155.675781 297.703125 C 150.53125 304.367188 145.226562 310.464844 139.988281 315.921875 Z M 97.574219 282.375 C 89.472656 281.167969 81.660156 279.691406 74.195312 277.871094 C 76.3125 270.523438 78.929688 262.949219 81.890625 255.375 C 84.234375 259.925781 86.671875 264.496094 89.355469 269.046875 C 92.042969 273.617188 94.773438 278.054688 97.574219 282.375 Z M 139.691406 163.828125 C 144.996094 169.285156 150.300781 175.382812 155.539062 182.046875 C 150.414062 181.820312 145.15625 181.636719 139.851562 181.636719 C 134.503906 181.636719 129.199219 181.75 124.007812 182.046875 C 129.152344 175.382812 134.457031 169.285156 139.691406 163.828125 Z M 97.507812 197.375 C 94.707031 201.765625 91.929688 206.269531 89.289062 210.886719 C 86.671875 215.4375 84.210938 220.007812 81.867188 224.554688 C 78.792969 216.914062 76.175781 209.292969 73.988281 201.878906 C 81.480469 200.105469 89.355469 198.582031 97.507812 197.375 Z M 45.898438 268.703125 C 25.703125 260.105469 12.65625 248.824219 12.65625 239.886719 C 12.65625 230.949219 25.726562 219.597656 45.898438 211.070312 C 50.792969 208.953125 56.164062 207.089844 61.695312 205.3125 C 64.953125 216.480469 69.230469 228.105469 74.535156 240 C 69.300781 251.851562 65.066406 263.40625 61.878906 274.527344 C 56.230469 272.753906 50.859375 270.820312 45.898438 268.703125 Z M 76.585938 350.109375 C 68.820312 345.675781 65.476562 328.75 68.09375 306.984375 C 68.730469 301.640625 69.753906 296 71.007812 290.242188 C 82.1875 292.972656 94.386719 295.089844 107.207031 296.453125 C 114.902344 306.984375 122.890625 316.558594 130.929688 324.929688 C 112.328125 342.195312 94.890625 351.65625 83.027344 351.65625 C 80.457031 351.585938 78.292969 351.085938 76.585938 350.109375 Z M 211.839844 306.710938 C 214.523438 328.480469 211.203125 345.402344 203.507812 349.90625 C 201.796875 350.929688 199.566406 351.382812 196.949219 351.382812 C 185.15625 351.382812 167.648438 341.988281 149.050781 324.839844 C 157.039062 316.46875 165.007812 306.960938 172.589844 296.40625 C 185.476562 295.042969 197.679688 292.929688 208.855469 290.128906 C 210.175781 295.886719 211.203125 301.410156 211.839844 306.710938 Z M 233.785156 268.703125 C 228.890625 270.820312 223.519531 272.683594 217.984375 274.460938 C 214.730469 263.292969 210.449219 251.667969 205.144531 239.773438 C 210.382812 227.921875 214.617188 216.367188 217.804688 205.246094 C 223.449219 207.019531 228.800781 208.953125 233.832031 211.046875 C 254.023438 219.644531 267.070312 230.925781 267.070312 239.863281 C 267.023438 248.824219 253.980469 260.152344 233.785156 268.703125 Z M 233.785156 268.703125 " fill-opacity="1" fill-rule="evenodd"/></g><g clip-path="url(#09fe2923f7)"><path fill="#06b6d4" d="M 495.214844 129.480469 C 445.824219 129.480469 414.949219 154.078125 402.589844 203.265625 C 421.121094 178.679688 442.730469 169.460938 467.414062 175.601562 C 481.523438 179.105469 491.535156 189.28125 502.75 200.546875 C 520.84375 218.910156 541.949219 240.140625 587.839844 240.140625 C 637.226562 240.140625 668.101562 215.546875 680.464844 166.359375 C 661.949219 190.964844 640.34375 200.183594 615.636719 194.023438 C 601.527344 190.519531 591.515625 180.34375 580.300781 169.078125 C 562.148438 150.625 541.132812 129.480469 495.214844 129.480469 Z M 402.589844 240.140625 C 353.199219 240.140625 322.324219 264.738281 309.964844 313.925781 C 328.515625 289.339844 350.125 280.121094 374.789062 286.261719 C 388.898438 289.765625 398.910156 299.941406 410.125 311.238281 C 428.21875 329.570312 449.324219 350.832031 495.214844 350.832031 C 544.601562 350.832031 575.476562 326.238281 587.839844 277.050781 C 569.324219 301.632812 547.71875 310.835938 523.011719 304.652344 C 508.902344 301.148438 498.890625 290.972656 487.675781 279.707031 C 469.585938 261.34375 448.480469 240.082031 402.589844 240.082031 Z M 402.589844 240.140625 " fill-opacity="1" fill-rule="evenodd"/></g><g clip-path="url(#2a5f0efb57)"><path fill="#59529d" d="M 959.703125 115.351562 L 959.703125 239.851562 L 835.203125 364.351562 L 772.953125 302.101562 L 835.203125 239.851562 L 835.203125 240.421875 L 835.203125 239.851562 Z M 959.703125 115.351562 " fill-opacity="1" fill-rule="nonzero"/></g><g clip-path="url(#6495cda2d3)"><path fill="#5271b4" d="M 959.703125 239.851562 L 959.703125 364.351562 L 897.453125 302.101562 Z M 959.703125 239.851562 " fill-opacity="1" fill-rule="nonzero"/></g><g clip-path="url(#bca74bea2c)"><path fill="#bb4b96" d="M 835.203125 239.851562 L 710.703125 364.351562 L 710.703125 115.351562 Z M 835.203125 239.851562 " fill-opacity="1" fill-rule="nonzero"/></g></svg>